<mxfile host="app.diagrams.net" modified="2024-01-03T17:48:21.372Z" agent="Mozilla/5.0 (Windows NT 10.0; Win64; x64) AppleWebKit/537.36 (KHTML, like Gecko) Chrome/120.0.0.0 Safari/537.36 Edg/120.0.0.0" etag="ysVKHh1o1JltOy0Lk5Lp" version="22.1.16" type="device">
  <diagram name="第 1 页" id="EFc8p3XRnHDHvVFF_zOs">
    <mxGraphModel dx="1097" dy="644" grid="1" gridSize="10" guides="1" tooltips="1" connect="1" arrows="1" fold="1" page="1" pageScale="1" pageWidth="827" pageHeight="1169" math="0" shadow="0">
      <root>
        <mxCell id="0" />
        <mxCell id="1" parent="0" />
        <mxCell id="ji64X5-2wav8tEOQIHOT-1" value="LLRES" style="rounded=1;whiteSpace=wrap;html=1;fillColor=#dae8fc;strokeColor=#6c8ebf;" vertex="1" parent="1">
          <mxGeometry x="200" y="280" width="370" height="40" as="geometry" />
        </mxCell>
        <mxCell id="ji64X5-2wav8tEOQIHOT-2" value="IMFX-GL" style="rounded=1;whiteSpace=wrap;html=1;fillColor=#e1d5e7;strokeColor=#9673a6;" vertex="1" parent="1">
          <mxGeometry x="200" y="330" width="370" height="40" as="geometry" />
        </mxCell>
        <mxCell id="ji64X5-2wav8tEOQIHOT-3" value="OpenGL API" style="rounded=1;whiteSpace=wrap;html=1;strokeColor=#b85450;fillColor=#f8cecc;" vertex="1" parent="1">
          <mxGeometry x="200" y="420" width="370" height="60" as="geometry" />
        </mxCell>
        <mxCell id="ji64X5-2wav8tEOQIHOT-4" value="Shader" style="rounded=1;whiteSpace=wrap;html=1;fillColor=#e1d5e7;strokeColor=#9673a6;" vertex="1" parent="1">
          <mxGeometry x="200" y="380" width="60" height="30" as="geometry" />
        </mxCell>
        <mxCell id="ji64X5-2wav8tEOQIHOT-5" value="Texture" style="rounded=1;whiteSpace=wrap;html=1;fillColor=#e1d5e7;strokeColor=#9673a6;" vertex="1" parent="1">
          <mxGeometry x="270" y="380" width="60" height="30" as="geometry" />
        </mxCell>
        <mxCell id="ji64X5-2wav8tEOQIHOT-6" value="VAO" style="rounded=1;whiteSpace=wrap;html=1;fillColor=#e1d5e7;strokeColor=#9673a6;" vertex="1" parent="1">
          <mxGeometry x="340" y="380" width="50" height="30" as="geometry" />
        </mxCell>
        <mxCell id="ji64X5-2wav8tEOQIHOT-7" value="VBO" style="rounded=1;whiteSpace=wrap;html=1;fillColor=#e1d5e7;strokeColor=#9673a6;" vertex="1" parent="1">
          <mxGeometry x="400" y="380" width="50" height="30" as="geometry" />
        </mxCell>
        <mxCell id="ji64X5-2wav8tEOQIHOT-8" value="FBO" style="rounded=1;whiteSpace=wrap;html=1;fillColor=#e1d5e7;strokeColor=#9673a6;" vertex="1" parent="1">
          <mxGeometry x="460" y="380" width="50" height="30" as="geometry" />
        </mxCell>
        <mxCell id="ji64X5-2wav8tEOQIHOT-9" value="RBO" style="rounded=1;whiteSpace=wrap;html=1;fillColor=#e1d5e7;strokeColor=#9673a6;" vertex="1" parent="1">
          <mxGeometry x="520" y="380" width="50" height="30" as="geometry" />
        </mxCell>
        <mxCell id="ji64X5-2wav8tEOQIHOT-10" value="" style="shape=flexArrow;endArrow=classic;startArrow=classic;html=1;rounded=0;fillColor=#ffe6cc;strokeColor=#d79b00;" edge="1" parent="1">
          <mxGeometry width="100" height="100" relative="1" as="geometry">
            <mxPoint x="384.68" y="270" as="sourcePoint" />
            <mxPoint x="385" y="210" as="targetPoint" />
          </mxGeometry>
        </mxCell>
        <mxCell id="ji64X5-2wav8tEOQIHOT-15" value="说明" style="swimlane;whiteSpace=wrap;html=1;fillColor=#f5f5f5;strokeColor=#666666;fontColor=#333333;rounded=1;" vertex="1" parent="1">
          <mxGeometry x="580" y="290" width="120" height="180" as="geometry" />
        </mxCell>
        <mxCell id="ji64X5-2wav8tEOQIHOT-11" value="底层资源" style="rounded=1;whiteSpace=wrap;html=1;fillColor=#dae8fc;strokeColor=#6c8ebf;" vertex="1" parent="ji64X5-2wav8tEOQIHOT-15">
          <mxGeometry x="10" y="30" width="100" height="40" as="geometry" />
        </mxCell>
        <mxCell id="ji64X5-2wav8tEOQIHOT-12" value="渲染抽象层" style="rounded=1;whiteSpace=wrap;html=1;fillColor=#e1d5e7;strokeColor=#9673a6;" vertex="1" parent="ji64X5-2wav8tEOQIHOT-15">
          <mxGeometry x="10" y="80" width="100" height="40" as="geometry" />
        </mxCell>
        <mxCell id="ji64X5-2wav8tEOQIHOT-13" value="图形API" style="rounded=1;whiteSpace=wrap;html=1;fillColor=#f8cecc;strokeColor=#b85450;" vertex="1" parent="ji64X5-2wav8tEOQIHOT-15">
          <mxGeometry x="10" y="130" width="100" height="40" as="geometry" />
        </mxCell>
      </root>
    </mxGraphModel>
  </diagram>
</mxfile>
